<mxfile host="drawio-plugin" modified="2022-10-16T07:41:08.692Z" agent="5.0 (Windows NT 6.2; Win64; x64) AppleWebKit/537.36 (KHTML, like Gecko) Chrome/89.0.4389.114 Safari/537.36" etag="N5DEyLRD7lyzzNNtlfBu" version="15.5.4" type="embed"><diagram id="1czklNrwi9EsNagj-m8T" name="第 1 页"><mxGraphModel dx="1828" dy="809" grid="1" gridSize="10" guides="1" tooltips="1" connect="1" arrows="1" fold="1" page="1" pageScale="1" pageWidth="827" pageHeight="1169" background="none" math="0" shadow="0"><root><mxCell id="0"/><mxCell id="1" parent="0"/><mxCell id="AhttPOFJjhMUD6R0sSNN-30" value="&lt;span style=&quot;color: rgb(64, 64, 64); font-family: Lato, proxima-nova, &amp;quot;Helvetica Neue&amp;quot;, Arial, sans-serif; font-size: 16px; font-weight: 400; text-align: left; background-color: rgb(252, 252, 252);&quot;&gt;&amp;lt;&amp;lt;abstract&amp;gt;&amp;gt; 车&lt;/span&gt;" style="swimlane;fontStyle=1;align=center;verticalAlign=middle;childLayout=stackLayout;horizontal=1;startSize=29;horizontalStack=0;resizeParent=1;resizeParentMax=0;resizeLast=0;collapsible=0;marginBottom=0;html=1;" parent="1" vertex="1"><mxGeometry x="214" y="170" width="349" height="60" as="geometry"/></mxCell><mxCell id="AhttPOFJjhMUD6R0sSNN-33" value="汽车" style="swimlane;fontStyle=1;align=center;verticalAlign=middle;childLayout=stackLayout;horizontal=1;startSize=29;horizontalStack=0;resizeParent=1;resizeParentMax=0;resizeLast=0;collapsible=0;marginBottom=0;html=1;" parent="1" vertex="1"><mxGeometry x="220" y="290" width="140" height="54" as="geometry"/></mxCell><mxCell id="AhttPOFJjhMUD6R0sSNN-39" value="" style="endArrow=block;dashed=1;endFill=0;endSize=12;html=1;rounded=0;" parent="AhttPOFJjhMUD6R0sSNN-33" edge="1"><mxGeometry width="160" relative="1" as="geometry"><mxPoint x="60" as="sourcePoint"/><mxPoint x="60" y="-60" as="targetPoint"/></mxGeometry></mxCell><mxCell id="AhttPOFJjhMUD6R0sSNN-34" value="自行车" style="swimlane;fontStyle=1;align=center;verticalAlign=middle;childLayout=stackLayout;horizontal=1;startSize=29;horizontalStack=0;resizeParent=1;resizeParentMax=0;resizeLast=0;collapsible=0;marginBottom=0;html=1;" parent="1" vertex="1"><mxGeometry x="420" y="290" width="140" height="54" as="geometry"/></mxCell><mxCell id="AhttPOFJjhMUD6R0sSNN-40" value="" style="endArrow=block;dashed=1;endFill=0;endSize=12;html=1;rounded=0;" parent="AhttPOFJjhMUD6R0sSNN-34" edge="1"><mxGeometry width="160" relative="1" as="geometry"><mxPoint x="70" as="sourcePoint"/><mxPoint x="70" y="-60" as="targetPoint"/></mxGeometry></mxCell><mxCell id="AhttPOFJjhMUD6R0sSNN-41" value="学生" style="swimlane;fontStyle=1;align=center;verticalAlign=middle;childLayout=stackLayout;horizontal=1;startSize=29;horizontalStack=0;resizeParent=1;resizeParentMax=0;resizeLast=0;collapsible=0;marginBottom=0;html=1;" parent="1" vertex="1"><mxGeometry x="420" y="400" width="140" height="54" as="geometry"/></mxCell><mxCell id="AhttPOFJjhMUD6R0sSNN-43" value="" style="html=1;verticalAlign=bottom;labelBackgroundColor=none;endArrow=open;endFill=0;dashed=1;rounded=0;entryX=0.5;entryY=1;entryDx=0;entryDy=0;" parent="AhttPOFJjhMUD6R0sSNN-41" target="AhttPOFJjhMUD6R0sSNN-34" edge="1"><mxGeometry width="160" relative="1" as="geometry"><mxPoint x="70" as="sourcePoint"/><mxPoint x="230" as="targetPoint"/></mxGeometry></mxCell><mxCell id="AhttPOFJjhMUD6R0sSNN-44" value="身份证" style="swimlane;fontStyle=1;align=center;verticalAlign=middle;childLayout=stackLayout;horizontal=1;startSize=29;horizontalStack=0;resizeParent=1;resizeParentMax=0;resizeLast=0;collapsible=0;marginBottom=0;html=1;" parent="1" vertex="1"><mxGeometry x="660" y="400" width="140" height="54" as="geometry"/></mxCell><mxCell id="AhttPOFJjhMUD6R0sSNN-47" value="" style="line;strokeWidth=1;fillColor=none;align=left;verticalAlign=middle;spacingTop=-1;spacingLeft=3;spacingRight=3;rotatable=0;labelPosition=right;points=[];portConstraint=eastwest;strokeColor=inherit;" parent="1" vertex="1"><mxGeometry x="560" y="430" width="100" height="8" as="geometry"/></mxCell><mxCell id="AhttPOFJjhMUD6R0sSNN-48" value="班级" style="swimlane;fontStyle=1;align=center;verticalAlign=middle;childLayout=stackLayout;horizontal=1;startSize=29;horizontalStack=0;resizeParent=1;resizeParentMax=0;resizeLast=0;collapsible=0;marginBottom=0;html=1;" parent="1" vertex="1"><mxGeometry x="420" y="525" width="140" height="54" as="geometry"/></mxCell><mxCell id="AhttPOFJjhMUD6R0sSNN-51" value="轮胎" style="swimlane;fontStyle=1;align=center;verticalAlign=middle;childLayout=stackLayout;horizontal=1;startSize=29;horizontalStack=0;resizeParent=1;resizeParentMax=0;resizeLast=0;collapsible=0;marginBottom=0;html=1;" parent="1" vertex="1"><mxGeometry x="20" y="400" width="140" height="54" as="geometry"/></mxCell><mxCell id="AhttPOFJjhMUD6R0sSNN-53" value="发动机" style="swimlane;fontStyle=1;align=center;verticalAlign=middle;childLayout=stackLayout;horizontal=1;startSize=29;horizontalStack=0;resizeParent=1;resizeParentMax=0;resizeLast=0;collapsible=0;marginBottom=0;html=1;" parent="1" vertex="1"><mxGeometry x="20" y="490" width="140" height="54" as="geometry"/></mxCell><mxCell id="AhttPOFJjhMUD6R0sSNN-54" value="SUV" style="swimlane;fontStyle=1;align=center;verticalAlign=middle;childLayout=stackLayout;horizontal=1;startSize=29;horizontalStack=0;resizeParent=1;resizeParentMax=0;resizeLast=0;collapsible=0;marginBottom=0;html=1;" parent="1" vertex="1"><mxGeometry x="216" y="586" width="140" height="54" as="geometry"/></mxCell><mxCell id="AhttPOFJjhMUD6R0sSNN-55" value="" style="endArrow=block;html=1;rounded=0;align=center;verticalAlign=bottom;endFill=0;labelBackgroundColor=none;endSize=8;" parent="1" edge="1"><mxGeometry relative="1" as="geometry"><mxPoint x="280" y="585" as="sourcePoint"/><mxPoint x="280" y="345" as="targetPoint"/></mxGeometry></mxCell><mxCell id="AhttPOFJjhMUD6R0sSNN-56" value="" style="resizable=0;html=1;align=center;verticalAlign=top;labelBackgroundColor=none;" parent="AhttPOFJjhMUD6R0sSNN-55" connectable="0" vertex="1"><mxGeometry relative="1" as="geometry"/></mxCell><mxCell id="AhttPOFJjhMUD6R0sSNN-58" value="" style="endArrow=diamondThin;endFill=0;endSize=24;html=1;rounded=0;entryX=0;entryY=0.5;entryDx=0;entryDy=0;exitX=0.5;exitY=0;exitDx=0;exitDy=0;" parent="1" source="AhttPOFJjhMUD6R0sSNN-51" target="AhttPOFJjhMUD6R0sSNN-33" edge="1"><mxGeometry width="160" relative="1" as="geometry"><mxPoint x="80" y="380" as="sourcePoint"/><mxPoint x="240" y="380" as="targetPoint"/><Array as="points"><mxPoint x="90" y="317"/></Array></mxGeometry></mxCell><mxCell id="AhttPOFJjhMUD6R0sSNN-59" value="" style="endArrow=diamondThin;endFill=0;endSize=24;html=1;rounded=0;entryX=0.25;entryY=1;entryDx=0;entryDy=0;" parent="1" target="AhttPOFJjhMUD6R0sSNN-33" edge="1"><mxGeometry width="160" relative="1" as="geometry"><mxPoint x="160" y="520" as="sourcePoint"/><mxPoint x="320" y="520" as="targetPoint"/><Array as="points"><mxPoint x="255" y="520"/></Array></mxGeometry></mxCell><mxCell id="AhttPOFJjhMUD6R0sSNN-60" value="" style="endArrow=diamondThin;endFill=0;endSize=24;html=1;rounded=0;exitX=0.5;exitY=1;exitDx=0;exitDy=0;entryX=0.5;entryY=0;entryDx=0;entryDy=0;" parent="1" source="AhttPOFJjhMUD6R0sSNN-41" target="AhttPOFJjhMUD6R0sSNN-48" edge="1"><mxGeometry width="160" relative="1" as="geometry"><mxPoint x="480" y="480" as="sourcePoint"/><mxPoint x="640" y="480" as="targetPoint"/></mxGeometry></mxCell><mxCell id="AhttPOFJjhMUD6R0sSNN-61" value="学校" style="swimlane;fontStyle=1;align=center;verticalAlign=middle;childLayout=stackLayout;horizontal=1;startSize=29;horizontalStack=0;resizeParent=1;resizeParentMax=0;resizeLast=0;collapsible=0;marginBottom=0;html=1;" parent="1" vertex="1"><mxGeometry x="420" y="630" width="140" height="54" as="geometry"/></mxCell><mxCell id="AhttPOFJjhMUD6R0sSNN-62" value="" style="endArrow=diamondThin;endFill=1;endSize=24;html=1;rounded=0;entryX=0.429;entryY=0;entryDx=0;entryDy=0;entryPerimeter=0;" parent="1" edge="1"><mxGeometry width="160" relative="1" as="geometry"><mxPoint x="488" y="580" as="sourcePoint"/><mxPoint x="488.05999999999995" y="630" as="targetPoint"/></mxGeometry></mxCell></root></mxGraphModel></diagram></mxfile>